HIERARCHY
ROOT Hips
{
	OFFSET 0.000000 0.000000 0.000000
	CHANNELS 6 Xposition Yposition Zposition Xrotation Yrotation Zrotation
	JOINT LeftUpLeg_virtual
	{
		OFFSET 0.000000 0.000000 0.000000
		CHANNELS 3 Xrotation Yrotation Zrotation
		JOINT LeftUpLeg
		{
			OFFSET 11.394100 -6.187798 -0.413800
			CHANNELS 3 Xrotation Yrotation Zrotation
			JOINT LeftLeg
			{
				OFFSET 0.430247 -32.302673 3.732800
				CHANNELS 3 Xrotation Yrotation Zrotation
				JOINT LeftFoot
				{
					OFFSET -0.430247 -48.264931 -6.423300
					CHANNELS 3 Xrotation Yrotation Zrotation
					JOINT LeftToeBase
					{
						OFFSET 4.230900 -16.068199 23.438400
						CHANNELS 3 Xrotation Yrotation Zrotation
						JOINT LeftToe_End
						{
							OFFSET 4.510700 0.695400 19.974600
							CHANNELS 3 Xrotation Yrotation Zrotation
							End Site
							{
								OFFSET 0 0 0
							}
						}
					}
				}
			}
		}
	}
	JOINT RightUpLeg_virtual
	{
		OFFSET 0.000000 0.000000 0.000000
		CHANNELS 3 Xrotation Yrotation Zrotation
		JOINT RightUpLeg
		{
			OFFSET -11.333700 -6.187798 -0.413800
			CHANNELS 3 Xrotation Yrotation Zrotation
			JOINT RightLeg
			{
				OFFSET -0.430392 -32.302628 3.733000
				CHANNELS 3 Xrotation Yrotation Zrotation
				JOINT RightFoot
				{
					OFFSET 0.430392 -48.264973 -6.423500
					CHANNELS 3 Xrotation Yrotation Zrotation
					JOINT RightToeBase
					{
						OFFSET -4.230900 -16.068199 23.438400
						CHANNELS 3 Xrotation Yrotation Zrotation
						JOINT RightToe_End
						{
							OFFSET -4.510700 0.695400 19.974600
							CHANNELS 3 Xrotation Yrotation Zrotation
							End Site
							{
								OFFSET 0 0 0
							}
						}
					}
				}
			}
		}
	}
	JOINT Spine_virtual
	{
		OFFSET 0.000000 0.000000 0.000000
		CHANNELS 3 Xrotation Yrotation Zrotation
		JOINT Spine
		{
			OFFSET -0.002400 12.777504 0.315300
			CHANNELS 3 Xrotation Yrotation Zrotation
			JOINT Spine1
			{
				OFFSET -0.002067 5.816869 0.032633
				CHANNELS 3 Xrotation Yrotation Zrotation
				JOINT Spine1_split
				{
					OFFSET -0.002067 5.816869 0.032633
					CHANNELS 3 Xrotation Yrotation Zrotation
					JOINT Spine2
					{
						OFFSET -0.002067 5.816869 0.032633
						CHANNELS 3 Xrotation Yrotation Zrotation
						JOINT Neck_virtual
						{
							OFFSET 0.000000 0.000000 0.000000
							CHANNELS 3 Xrotation Yrotation Zrotation
							JOINT Neck
							{
								OFFSET -0.003700 21.199493 -0.826900
								CHANNELS 3 Xrotation Yrotation Zrotation
								JOINT Head
								{
									OFFSET 0.000000 20.442200 4.834800
									CHANNELS 3 Xrotation Yrotation Zrotation
									JOINT HeadTop_End
									{
										OFFSET 0.000000 34.668396 4.968400
										CHANNELS 3 Xrotation Yrotation Zrotation
										End Site
										{
											OFFSET 0 0 0
										}
									}
								}
							}
						}
						JOINT LeftShoulder_virtual
						{
							OFFSET 0.000000 0.000000 0.000000
							CHANNELS 3 Xrotation Yrotation Zrotation
							JOINT LeftShoulder
							{
								OFFSET 3.288150 8.794197 -1.372250
								CHANNELS 3 Xrotation Yrotation Zrotation
								JOINT LeftShoulder_split
								{
									OFFSET 3.288150 8.794197 -1.372250
									CHANNELS 3 Xrotation Yrotation Zrotation
									JOINT LeftArm
									{
										OFFSET 11.953299 -2.279007 -0.146200
										CHANNELS 3 Xrotation Yrotation Zrotation
										JOINT LeftForeArm
										{
											OFFSET 18.448900 0.000000 0.000000
											CHANNELS 3 Xrotation Yrotation Zrotation
											JOINT LeftHand
											{
												OFFSET 29.527798 0.000000 0.000000
												CHANNELS 3 Xrotation Yrotation Zrotation
												End Site
												{
													OFFSET 0 0 0
												}
											}
										}
									}
								}
							}
						}
						JOINT RightShoulder_virtual
						{
							OFFSET 0.000000 0.000000 0.000000
							CHANNELS 3 Xrotation Yrotation Zrotation
							JOINT RightShoulder
							{
								OFFSET -3.249400 8.794197 -1.372250
								CHANNELS 3 Xrotation Yrotation Zrotation
								JOINT RightShoulder_split
								{
									OFFSET -3.249400 8.794197 -1.372250
									CHANNELS 3 Xrotation Yrotation Zrotation
									JOINT RightArm
									{
										OFFSET -11.953299 -2.279007 -0.146200
										CHANNELS 3 Xrotation Yrotation Zrotation
										JOINT RightForeArm
										{
											OFFSET -18.448900 0.000000 0.000000
											CHANNELS 3 Xrotation Yrotation Zrotation
											JOINT RightHand
											{
												OFFSET -29.527802 0.000000 0.000000
												CHANNELS 3 Xrotation Yrotation Zrotation
												End Site
												{
													OFFSET 0 0 0
												}
											}
										}
									}
								}
							}
						}
					}
				}
			}
		}
	}
}
MOTION
Frames: 4
Frame Time: 0.03333333
3.288866 89.067200 4.369041 0.000000 0.000000 0.000000 4.120611 -36.513228 1.550464 -54.396364 5.104101 18.570635 34.697983 -23.652283 -0.539374 -3.029531 -6.461594 -13.723925 -3.085099 0.060567 -1.729981 0.000000 0.000000 0.000000 1.595540 -32.779444 1.274787 -27.850600 -5.480871 -31.525807 22.872234 -9.666195 -0.510612 -7.690240 -15.816903 30.186120 0.050651 -4.366570 1.773154 0.000000 0.000000 0.000000 0.176548 -35.016338 -0.745133 21.556349 -2.024320 -4.612957 5.719538 -1.857138 1.364231 6.002375 -21.352223 7.721642 0.000000 0.000000 0.000000 6.822077 -0.722415 -0.774769 17.410203 10.809691 15.208497 -33.508686 24.917205 21.472026 0.000000 0.000000 0.000000 8.797140 -1.231165 0.118143 -0.831322 -12.693130 -19.495228 -1.704162 -2.956940 -1.855682 -38.859569 30.616542 -15.369182 3.623738 -17.344495 -4.795068 0.000000 0.000000 0.000000 6.773190 -0.981182 0.002599 -0.376134 -14.409937 23.240992 -12.297881 -3.639744 0.654779 16.975843 14.853764 34.191924 5.043490 52.247938 8.325202 0.000000 0.000000 0.000000 
1.239386 90.162369 4.504555 0.000000 0.000000 0.000000 4.310057 -33.429172 1.833673 -53.846404 9.403822 18.655169 35.893231 -25.078460 -0.716635 1.076000 -7.509271 -13.448484 -4.661227 -0.376962 -0.622379 0.000000 0.000000 0.000000 1.611641 -30.200583 1.869092 -24.376119 -3.389112 -27.907912 30.912142 -10.570502 -0.167276 -10.439497 -15.893319 26.735601 4.198219 -4.002182 3.917287 0.000000 0.000000 0.000000 -0.044383 -31.791676 0.621572 19.445600 -1.801535 -4.959439 5.843701 -1.308246 1.645532 5.819994 -13.864073 7.123966 0.000000 0.000000 0.000000 5.642555 -0.408807 -0.536098 20.045576 10.077172 13.855369 -31.433685 23.435714 21.363946 0.000000 0.000000 0.000000 8.129198 -0.616233 0.178401 -0.327837 -10.161551 -19.672926 -0.714398 -1.622285 -0.809135 -42.196987 29.919162 -13.975878 2.094886 -24.247260 -5.482439 0.000000 0.000000 0.000000 6.378817 -0.501169 0.053560 -1.443564 -11.582666 23.497722 -12.906582 0.132266 1.106585 15.354388 16.218416 35.375117 5.992937 51.567880 8.024621 0.000000 0.000000 0.000000 
-1.553378 91.700340 4.738155 0.000000 0.000000 0.000000 4.106318 -24.640454 3.129797 -50.424145 14.401654 15.812137 32.128892 -26.048994 -2.761769 7.821093 -9.524562 -11.437521 -6.228715 -1.200987 1.756156 0.000000 0.000000 0.000000 1.824941 -22.344822 3.509913 -19.021626 0.470104 -23.466042 42.604910 -8.796800 -0.326546 -9.022165 -12.627457 27.063419 -7.308570 -2.563791 1.779600 0.000000 0.000000 0.000000 0.433856 -23.360123 3.008042 15.995553 -0.788019 -5.172313 4.903997 0.201586 2.487015 5.920460 -9.494151 4.910190 0.000000 0.000000 0.000000 3.585970 0.989439 0.448768 24.391278 9.064296 11.809764 -24.716400 19.557570 19.056655 0.000000 0.000000 0.000000 6.346430 1.159052 0.989531 0.245662 -6.448247 -18.942261 0.122224 -0.326612 -0.014664 -40.671905 26.208293 -14.269389 3.794497 -34.138419 -3.386212 0.000000 0.000000 0.000000 5.030620 1.160956 0.884838 -2.220426 -8.546886 24.426261 -12.106925 1.912937 0.084564 13.694827 16.925656 34.856306 10.368993 49.339364 5.093645 0.000000 0.000000 0.000000 
-4.388866 93.022629 5.357552 0.000000 0.000000 0.000000 3.286215 -12.731531 5.053973 -44.580170 18.257161 10.370055 25.087464 -25.882799 -5.792288 15.676828 -10.749890 -7.334186 -8.168027 -2.188672 4.380840 0.000000 0.000000 0.000000 1.932675 -10.901427 5.618188 -11.316266 5.109046 -18.434585 51.696291 -6.038691 -1.640281 -5.860173 -6.889091 28.060837 -32.177335 0.854049 -1.963473 0.000000 0.000000 0.000000 0.597918 -11.602704 5.755320 11.852274 0.823307 -5.066414 3.087461 2.390567 3.609992 5.135238 -6.950816 2.532945 0.000000 0.000000 0.000000 1.015114 3.151366 1.884300 29.019309 8.310968 9.431007 -15.573972 13.779423 15.938666 0.000000 0.000000 0.000000 3.787827 3.657831 2.145142 0.614370 -2.294408 -17.511574 1.123051 1.130271 0.851998 -36.529047 18.723396 -15.493632 8.401846 -40.312589 1.769104 0.000000 0.000000 0.000000 2.954737 3.614212 2.142807 -2.696658 -5.896800 25.427597 -10.066683 1.279130 -1.313985 13.010201 16.115755 32.319297 16.501483 45.068792 0.945401 0.000000 0.000000 0.000000 
